<svg id="Layer_1" data-name="Layer 1" xmlns="http://www.w3.org/2000/svg" xmlns:xlink="http://www.w3.org/1999/xlink" viewBox="0 0 18.336 15.936"><defs><style>.cls-1{fill:none;}.cls-2{clip-path:url(#clip-path);}.cls-3{fill-opacity:0.5;fill:url(#linear-gradient);}.cls-4{fill-opacity:0.3;fill:url(#linear-gradient-2);}.cls-5,.cls-6{fill:#9e9e9e;}.cls-6{stroke:#9e9e9e;stroke-linecap:round;stroke-miterlimit:10;stroke-width:1.355px;}</style><clipPath id="clip-path"><rect className="cls-1" x="-1485.568" y="-408.122" width="1440" height="958"/></clipPath><linearGradient id="linear-gradient" x1="219.02" y1="240.565" x2="-1446.174" y2="515.7" gradientTransform="matrix(1, 0, 0, -1, 0, 120.64)" gradientUnits="userSpaceOnUse"><stop offset="0" stop-color="#cacaca" stop-opacity="0.36"/><stop offset="0.667" stop-color="#cacaca" stop-opacity="0.07"/><stop offset="1" stop-color="#cacaca" stop-opacity="0"/></linearGradient><linearGradient id="linear-gradient-2" x1="189.052" y1="46.518" x2="-1464.359" y2="385.376" xlink:href="#linear-gradient"/></defs><g className="cls-2"><path className="cls-3" d="M-1435.638-433.346c106.924,357.6,1299.72-27.325,1460.11,460.961h17.49V-297.211C-231-505.287-1336.261-152.9-1429.112-479.557Z"/><path className="cls-4" d="M-1427.133-425.683c93.117,361.442,1216.845-6.759,1461.3,551.981s17.48.671,17.48.671l-7.49-359.894c-264.77-218.4-1382.747,91.3-1462.99-238.684Z"/></g><path className="cls-5" d="M11.178,7.968A2.254,2.254,0,1,1,8.919,5.686,2.271,2.271,0,0,1,11.178,7.968Z"/><path className="cls-5" d="M9.777,2.354A9.018,9.018,0,0,0,.64,7.957c3.58,7.387,10.425,5.4,10.425,5.4a9.356,9.356,0,0,0,6.144-5.4A9.2,9.2,0,0,0,9.777,2.354Zm-.858,9.4a3.785,3.785,0,1,1,0-7.568,3.826,3.826,0,0,1,3.874,3.784A3.826,3.826,0,0,1,8.919,11.752Z"/><path className="cls-5" d="M11.178,7.968A2.254,2.254,0,1,1,8.919,5.686,2.271,2.271,0,0,1,11.178,7.968Z"/><path className="cls-5" d="M11.178,7.968A2.254,2.254,0,1,1,8.919,5.686,2.271,2.271,0,0,1,11.178,7.968Z"/><line className="cls-6" x1="15.853" y1="0.864" x2="1.996" y2="15.072"/></svg>