<svg width="16" height="11" viewBox="0 0 16 11" fill="none" xmlns="http://www.w3.org/2000/svg">
<path d="M8.20264 0.340332C4.86745 0.340332 2.01921 2.41482 0.865234 5.34311C2.01921 8.2714 4.86745 10.3459 8.20264 10.3459C11.5378 10.3459 14.3861 8.2714 15.54 5.34311C14.3861 2.41482 11.5378 0.340332 8.20264 0.340332ZM8.20264 8.67829C6.36162 8.67829 4.86745 7.18413 4.86745 5.34311C4.86745 3.50209 6.36162 2.00792 8.20264 2.00792C10.0437 2.00792 11.5378 3.50209 11.5378 5.34311C11.5378 7.18413 10.0437 8.67829 8.20264 8.67829ZM8.20264 3.342C7.09536 3.342 6.20153 4.23583 6.20153 5.34311C6.20153 6.45039 7.09536 7.34422 8.20264 7.34422C9.30992 7.34422 10.2037 6.45039 10.2037 5.34311C10.2037 4.23583 9.30992 3.342 8.20264 3.342Z" fill="#9E9E9E"/>
</svg>
